<svg width="38" height="38" viewBox="0 0 38 38" fill="none" xmlns="http://www.w3.org/2000/svg">
<g clip-path="url(#clip0_1131_530)">
<path d="M37.4359 13.7353C36.9341 13.1058 36.1813 12.7446 35.3704 12.7446H28.0521L24.0837 3.65781C23.8377 3.09442 23.1814 2.83695 22.6179 3.08314C22.0545 3.32917 21.7972 3.98549 22.0433 4.54896L25.6225 12.7447H12.3775L15.9567 4.54896C16.2028 3.98549 15.9455 3.32924 15.3821 3.08314C14.8187 2.83695 14.1624 3.09427 13.9163 3.65781L9.94792 12.7447H2.62965C1.81874 12.7447 1.06593 13.1058 0.564141 13.7354C0.0715515 14.3535 -0.11021 15.1481 0.0654656 15.9156L3.9736 32.9859C4.2465 34.1779 5.30093 35.0103 6.53779 35.0103H31.4622C32.6991 35.0103 33.7535 34.1779 34.0264 32.9859L37.9345 15.9156C38.1102 15.148 37.9285 14.3534 37.4359 13.7353ZM31.4622 32.7837H6.53779C6.34875 32.7837 6.18317 32.6598 6.14405 32.4889L2.23592 15.4187C2.20527 15.2848 2.2567 15.184 2.30539 15.1231C2.35051 15.0663 2.45271 14.9713 2.62965 14.9713H8.97557L8.68397 15.639C8.43793 16.2025 8.69518 16.8587 9.25865 17.1048C9.40367 17.1682 9.55478 17.1982 9.70359 17.1982C10.1327 17.1982 10.5417 16.9486 10.7244 16.5302L11.4052 14.9714H26.595L27.2758 16.5302C27.4585 16.9487 27.8674 17.1982 28.2966 17.1982C28.4453 17.1982 28.5965 17.1682 28.7415 17.1048C29.305 16.8588 29.5623 16.2025 29.3162 15.639L29.0246 14.9713H35.3705C35.5474 14.9713 35.6496 15.0663 35.6948 15.1231C35.7434 15.1841 35.7949 15.2848 35.7642 15.4187L31.8561 32.489C31.8169 32.6598 31.6513 32.7837 31.4622 32.7837Z" fill="#555252"/>
<path d="M12.3203 19.7954C11.7055 19.7954 11.207 20.2939 11.207 20.9087V29.0728C11.207 29.6876 11.7055 30.186 12.3203 30.186C12.9351 30.186 13.4336 29.6876 13.4336 29.0728V20.9087C13.4336 20.2939 12.9352 19.7954 12.3203 19.7954Z" fill="#555252"/>
<path d="M19 19.7954C18.3852 19.7954 17.8867 20.2939 17.8867 20.9087V29.0728C17.8867 29.6876 18.3852 30.186 19 30.186C19.6148 30.186 20.1133 29.6876 20.1133 29.0728V20.9087C20.1133 20.2939 19.6148 19.7954 19 19.7954Z" fill="#555252"/>
<path d="M25.6797 19.7954C25.0649 19.7954 24.5664 20.2939 24.5664 20.9087V29.0728C24.5664 29.6876 25.0649 30.186 25.6797 30.186C26.2945 30.186 26.793 29.6876 26.793 29.0728V20.9087C26.7929 20.2939 26.2945 19.7954 25.6797 19.7954Z" fill="#555252"/>
<ellipse cx="30.3998" cy="9.77135" rx="5.42857" ry="5.42857" fill="#FDDB16"/>
</g>
<defs>
<clipPath id="clip0_1131_530">
<rect width="38" height="38" fill="white"/>
</clipPath>
</defs>
</svg>
